<svg width="62" height="31" viewBox="0 0 62 31" fill="none" xmlns="http://www.w3.org/2000/svg">
<g clip-path="url(#clip0)">
<path d="M60.646 20.9408C59.875 24.2544 57.8064 26.6525 54.9356 28.4152C48.6045 32.2458 40.5686 31.4298 34.1749 26.3597C30.0127 23.0585 26.6529 18.9414 22.8919 15.2602C17.9587 10.4642 12.2357 8.1845 5.30296 10.4891C3.52276 11.112 2.16879 12.2643 0.846176 13.5162C1.24299 11.974 1.9466 10.5263 2.91552 9.25867C3.88444 7.991 5.09904 6.92899 6.48767 6.13527C13.3327 2.1427 19.9269 3.37598 26.2768 7.381C27.8743 8.43911 29.3298 9.69492 30.6082 11.1182C31.3353 11.8843 31.7051 11.9155 32.3132 10.9812C33.4604 9.17038 34.9592 7.60489 36.7221 6.37611C38.485 5.14732 40.4766 4.27988 42.5807 3.82444C45.5382 3.1655 48.6179 3.2879 51.513 4.17947C51.6884 4.20393 51.8572 4.26249 52.0098 4.35181C52.1624 4.44113 52.2957 4.55946 52.4023 4.70003C52.5088 4.84059 52.5864 5.00064 52.6306 5.17103C52.6749 5.34142 52.6849 5.5188 52.6601 5.69304C52.704 9.74789 52.7416 9.74166 48.6986 9.11257C48.1344 9.02536 47.564 8.95062 46.9936 8.91948C45.7399 8.85719 44.7495 8.61428 45.0629 6.9886C45.2071 6.25362 44.7997 6.23493 44.129 6.32213C39.7411 6.88271 36.2559 9.09388 33.2973 12.2331C32.846 12.7127 32.6705 13.1363 33.2096 13.6969C36.2622 17.0105 39.1268 20.5982 43.032 22.9277C47.8147 25.7867 52.867 25.8614 57.8817 23.2267C58.9786 22.6537 59.6995 21.7131 60.646 20.9408Z" fill="white"/>
<path d="M10.0607 10.9313C9.08908 12.4137 8.14883 13.7654 7.84795 15.4222C6.87009 20.8349 10.9257 24.9707 16.1347 25.4503C16.7612 25.4964 17.3906 25.4859 18.0152 25.4192C18.8363 25.3569 19.5258 25.2884 19.5697 26.4905C19.6073 27.3999 20.2592 27.2691 20.9362 26.9701C23.2487 26.0125 25.3298 24.5773 27.0416 22.7595C27.4991 22.2612 27.9129 21.7131 28.6901 22.417C29.4674 23.1208 28.7653 23.4883 28.4394 23.9492C23.4247 31.0748 13.3954 33.1676 5.99251 28.5086C4.5159 27.6297 3.23842 26.4566 2.24052 25.063C1.24263 23.6694 0.545928 22.0856 0.194309 20.4113C-0.771013 15.8644 2.00586 12.1957 7.33394 11.1805C8.21435 10.9041 9.14429 10.8191 10.0607 10.9313Z" fill="#E9973B"/>
<path d="M51.068 23.4819C51.9832 21.9932 52.8419 20.76 53.2368 19.3149C53.6722 17.9281 53.648 16.4391 53.1679 15.067C52.7855 14.033 53.1678 13.6095 54.2209 13.6718C54.6381 13.7064 55.0574 13.7064 55.4746 13.6718C56.9038 13.5036 57.9255 13.6718 57.6184 15.5404C57.4554 16.5494 58.3392 16.3189 58.9097 16.3314C61.323 16.3937 61.417 16.512 60.414 18.7107C59.0726 21.632 56.302 22.4479 53.5189 23.1642C52.7091 23.3191 51.8907 23.4252 51.068 23.4819Z" fill="#E9973B"/>
<path d="M57.5684 10.7383C57.5684 12.3963 57.1797 12.6069 55.6879 12.6754C53.8074 12.7876 53.8763 11.8906 53.7698 10.5079C53.6319 8.75139 54.453 8.71401 55.8257 8.63927C57.5809 8.56453 57.4998 9.00024 57.5684 10.7383Z" fill="#E9973B"/>
<path d="M50.3347 10.8378C51.9082 10.8377 51.9206 11.224 51.9708 12.4074C52.0334 13.7777 51.463 13.9397 50.2658 13.9895C48.8491 14.0455 48.5733 13.5473 48.5483 12.2392C48.5232 10.7381 49.2143 10.8379 50.3347 10.8378Z" fill="#E9973B"/>
<path d="M54.5157 5.26933C54.29 4.11703 55.0359 4.12326 55.8947 4.06097C57.1483 3.96131 57.1484 4.68383 57.1985 5.5683C57.3051 6.92615 56.44 6.677 55.6314 6.74552C54.4028 6.85141 54.4342 6.1102 54.5157 5.26933Z" fill="#E8E8E8"/>
<path d="M61.956 10.6136C62.1586 11.6552 61.4608 11.6911 60.6648 11.7223C59.5929 11.7223 59.5741 11.0994 59.5176 10.3333C59.4362 9.21213 60.1445 9.30556 60.8904 9.25573C61.9936 9.18099 61.7956 9.78855 61.956 10.6136Z" fill="#E9973B"/>
<path d="M52.2716 1.23347C52.4221 2.18645 51.7514 2.09303 51.1057 2.13663C50.1843 2.19268 50.1404 1.65702 50.1467 0.971867C50.1467 0.0873981 50.6858 0.0251131 51.4003 0.000198471C52.3343 -0.0371734 52.3155 0.560774 52.2716 1.23347Z" fill="#E9973B"/>
<path d="M58.7969 14.1888C58.7092 13.5286 59.0163 13.3105 59.6745 13.3105C60.4392 13.3105 60.4392 13.7466 60.4643 14.2947C60.5019 14.9736 60.2198 15.1542 59.5679 15.1605C58.8157 15.1667 58.7342 14.7618 58.7969 14.1888Z" fill="#E8E8E8"/>
</g>
<defs>
<clipPath id="clip0">
<rect width="62" height="31" fill="white"/>
</clipPath>
</defs>
</svg>
